<?xml version="1.0" standalone="no"?>
<!DOCTYPE svg PUBLIC "-//W3C//DTD SVG 20010904//EN"
 "http://www.w3.org/TR/2001/REC-SVG-20010904/DTD/svg10.dtd">
<svg version="1.0" xmlns="http://www.w3.org/2000/svg"
 width="700.000000pt" height="700.000000pt" viewBox="0 0 700.000000 700.000000"
 preserveAspectRatio="xMidYMid meet">
<metadata>
Created by potrace 1.14, written by Peter Selinger 2001-2017
</metadata>
<g transform="translate(0.000000,700.000000) scale(0.100000,-0.100000)"
fill="#000000" stroke="none">
<path d="M4615 6475 c-77 -23 -105 -43 -105 -74 0 -22 42 -80 62 -87 10 -3 34
-26 55 -50 39 -49 79 -74 103 -66 28 9 50 35 50 60 0 24 1 24 58 17 31 -4 73
-9 92 -11 33 -4 225 -37 280 -48 162 -33 253 -77 341 -165 178 -178 332 -532
332 -766 1 -211 -90 -389 -294 -579 -125 -116 -141 -130 -239 -207 -230 -182
-452 -316 -720 -437 -55 -25 -278 -102 -295 -102 -3 0 -4 68 -3 152 l3 151
115 33 c259 72 518 189 690 312 107 76 277 240 335 322 175 249 183 547 20
755 -148 189 -330 302 -580 360 -195 45 -468 29 -598 -34 -65 -32 -153 -116
-193 -183 -53 -91 -111 -281 -130 -423 -3 -27 -8 -57 -9 -65 -2 -9 -6 -43 -10
-75 -4 -33 -8 -71 -11 -84 -6 -39 -16 -204 -30 -481 -3 -74 -8 -137 -10 -139
-6 -6 -23 -9 -104 -16 -36 -3 -83 -8 -105 -10 -22 -2 -85 -7 -140 -11 -55 -3
-122 -7 -150 -9 -69 -5 -801 -5 -900 0 -44 2 -174 7 -290 10 -115 4 -232 9
-260 10 -145 7 -526 19 -567 17 -57 -1 -129 -33 -157 -67 -63 -81 -48 -198 34
-253 59 -41 48 -40 565 -57 91 -3 199 -8 240 -10 210 -11 574 -19 905 -19 387
0 538 6 805 30 137 12 121 30 122 -133 1 -79 -1 -145 -4 -148 -5 -5 -36 -7
-303 -21 -77 -4 -454 -8 -839 -8 l-698 -1 -19 -24 c-24 -29 -24 -43 0 -72 l19
-24 679 0 c584 0 862 5 1114 20 l57 3 2 -102 c1 -55 3 -128 5 -161 1 -33 6
-130 10 -215 4 -85 9 -175 10 -200 2 -25 6 -90 10 -145 3 -55 8 -125 11 -155
2 -30 6 -102 9 -160 3 -58 8 -141 10 -185 3 -44 8 -298 11 -565 7 -507 8 -515
53 -568 29 -34 99 -62 156 -62 91 0 172 57 194 134 14 52 5 890 -14 1211 -7
127 -17 279 -20 315 -2 19 -6 94 -10 165 -4 72 -9 148 -10 170 -7 100 -18 390
-19 483 l-1 104 115 35 c151 45 220 73 364 145 272 136 526 303 726 478 35 30
72 63 84 73 214 187 327 352 380 557 19 71 14 272 -8 362 -69 284 -235 572
-407 708 -109 86 -254 135 -514 174 -22 4 -53 9 -70 11 -16 3 -43 7 -60 10
-40 6 -137 18 -152 18 -7 0 -13 12 -13 27 0 66 -49 79 -165 45z m171 -776
c163 -30 341 -139 397 -244 17 -32 22 -57 22 -120 -1 -73 -4 -86 -39 -153 -64
-120 -216 -261 -384 -356 -114 -64 -388 -176 -432 -176 -7 0 -9 32 -5 93 9
165 17 291 20 332 8 76 17 160 20 185 3 14 7 43 9 65 9 65 34 186 50 239 8 27
12 61 9 76 -5 26 -2 29 43 43 88 28 191 34 290 16z"/>
<path d="M884 4713 c-22 -38 -72 -120 -111 -183 -89 -146 -146 -250 -140 -256
2 -3 21 -6 41 -8 33 -4 39 0 59 33 12 20 29 50 37 66 30 63 48 82 75 80 14 -2
23 1 19 6 -3 5 -12 9 -20 9 -9 0 -14 3 -12 8 11 26 62 112 64 109 2 -2 6 -34
9 -73 10 -112 13 -146 21 -206 l7 -58 52 0 52 0 -12 73 c-27 154 -37 389 -18
429 7 15 13 29 13 31 0 2 -21 5 -47 5 l-48 2 -41 -67z"/>
<path d="M3573 3130 c-32 -13 -36 -39 -28 -189 11 -213 13 -254 19 -446 7
-205 16 -400 21 -462 3 -39 1 -42 -15 -33 -48 26 -120 -14 -106 -58 7 -21 95
-112 108 -112 4 0 19 -11 34 -25 15 -14 35 -25 45 -25 23 0 69 21 69 31 0 5
25 36 55 70 60 67 65 84 36 120 -14 18 -27 23 -55 21 -34 -3 -36 -1 -37 30 -1
18 -2 49 -4 68 -2 31 -5 104 -20 535 -4 110 -12 258 -20 394 -2 29 -9 59 -17
67 -18 18 -59 25 -85 14z"/>
<path d="M4893 1692 c-28 -3 -34 -8 -42 -40 -6 -20 -24 -91 -40 -157 -17 -66
-53 -202 -79 -302 -30 -112 -45 -183 -38 -184 58 -7 86 -3 91 11 3 11 20 15
62 16 32 0 76 4 98 8 22 3 52 9 68 11 99 18 198 82 212 138 16 64 -58 128
-174 149 l-72 13 65 44 c79 52 136 113 136 144 0 51 -101 102 -208 106 -18 1
-22 5 -17 20 6 21 -12 28 -62 23z m72 -72 c3 -5 17 -10 30 -10 29 0 85 -46 85
-70 0 -25 -58 -83 -132 -130 -65 -42 -80 -48 -73 -27 2 6 18 65 35 130 31 111
41 130 55 107z m62 -312 c54 -20 103 -66 103 -98 0 -24 -45 -77 -82 -96 -35
-18 -107 -40 -158 -49 -19 -3 -50 -8 -68 -11 -25 -5 -31 -3 -28 7 3 8 17 64
31 124 37 160 33 153 97 147 29 -2 76 -13 105 -24z"/>
</g>
</svg>
