<?xml version="1.0" encoding="UTF-8" standalone="no"?>
<!-- Created with Inkscape (http://www.inkscape.org/) -->

<svg
   width="256"
   height="256"
   viewBox="0 0 67.733321 67.733333"
   version="1.1"
   id="svg5"
   xmlns="http://www.w3.org/2000/svg"
   xmlns:svg="http://www.w3.org/2000/svg">
  <defs
     id="defs2" />
  <g
     id="layer1">
    <path
       style="fill:#000080;fill-opacity:1;fill-rule:nonzero;stroke:none;stroke-width:0.328889"
       id="path929"
       d="m 13.804924,27.192932 c 4.983435,0.153762 9.96553,0.439701 14.95344,0.458494 1.256459,0.0047 2.512755,-0.02737 3.769131,-0.04103 2.876011,-0.179211 4.811416,-0.208966 7.641099,-0.746368 3.2525,-0.617701 6.508164,-1.699871 9.218821,-3.460626 0.709092,-0.460604 1.31945,-1.032335 1.979177,-1.5485 0.482671,-0.533011 1.024372,-1.027135 1.448009,-1.599035 1.135341,-1.532678 1.764586,-3.388664 1.40617,-5.233594 -0.304935,-1.569634 -0.761896,-1.886995 -1.724356,-3.163599 -0.481728,-0.38819 -0.924801,-0.818772 -1.445191,-1.164571 -1.887479,-1.2542263 -4.324208,-1.8622797 -6.66343,-1.7087966 -0.497006,0.032608 -0.983376,0.1454259 -1.475064,0.2181395 -0.45216,0.1563344 -0.972651,0.2038243 -1.356478,0.4690031 -1.630387,1.126409 -1.978971,2.0394 -2.489602,3.793877 -0.237661,0.816566 -0.371501,1.655827 -0.496621,2.492228 -0.349573,2.336789 -0.377992,4.02103 -0.505708,6.402919 -0.266621,5.768546 -0.05701,11.539278 0.328514,17.298361 0.234064,2.861779 0.331977,5.72925 0.381304,8.597635 0.02727,1.838575 0.02877,3.677333 0.02717,5.516033 -0.0021,2.496262 3.937096,2.499001 3.939256,0.0028 v 0 c 0.0017,-1.857789 1e-5,-3.715631 -0.02765,-5.573294 -0.05045,-2.920746 -0.150303,-5.840582 -0.387915,-8.754641 -0.3775,-5.63292 -0.585357,-11.277142 -0.325863,-16.919441 0.143043,-2.735647 0.249726,-5.314262 0.82734,-8.009259 0.08777,-0.409535 0.255819,-0.804435 0.32332,-1.217045 0.0206,-0.125841 -0.143415,-0.272951 -0.06248,-0.377427 0.117364,-0.151493 0.366543,-0.167765 0.549811,-0.251647 0.25607,-0.05266 0.507321,-0.130193 0.768212,-0.157969 1.875954,-0.199727 3.483805,0.367584 4.910677,1.426227 0.462515,0.481175 0.762456,0.687992 0.973847,1.310479 0.32752,0.964439 0.0079,1.980828 -0.565371,2.814142 -0.283706,0.412411 -0.655196,0.770803 -0.982792,1.156204 -0.47491,0.392501 -0.908077,0.829915 -1.424722,1.177506 -2.248661,1.512851 -5.009265,2.444356 -7.735768,2.973168 -2.618885,0.507938 -4.432259,0.536542 -7.102716,0.707173 -1.212676,0.01385 -2.425264,0.04593 -3.638027,0.04153 -5.015374,-0.01818 -10.024439,-0.311648 -15.035557,-0.459258 -2.785476,0 -2.785476,3.530246 0,3.530246 z" />
    <ellipse
       id="path951"
       style="fill:#000000;stroke:#000000;stroke-width:0.328889"
       cx="47.897041"
       cy="11.955692"
       rx="0.0064179343"
       ry="0.0057515609" />
    <ellipse
       id="path953"
       style="fill:#000000;stroke:#000000;stroke-width:0.328889"
       cx="47.897041"
       cy="11.955692"
       rx="0.0064179343"
       ry="0.0057515609" />
    <ellipse
       id="path955"
       style="fill:#000000;stroke:#000000;stroke-width:0.328889"
       cx="45.969738"
       cy="11.092093"
       rx="0.0064179343"
       ry="0.0057515609" />
    <ellipse
       id="path957"
       style="fill:#000000;stroke:#000000;stroke-width:0.328889"
       cx="45.969738"
       cy="11.092093"
       rx="0.0064179343"
       ry="0.0057515609" />
    <ellipse
       id="path959"
       style="fill:#000000;stroke:#000000;stroke-width:0.328889"
       cx="44.042427"
       cy="10.746655"
       rx="0.0064179343"
       ry="0.0057515609" />
    <ellipse
       id="path961"
       style="fill:#000000;stroke:#000000;stroke-width:0.328889"
       cx="44.042427"
       cy="10.746655"
       rx="0.0064179343"
       ry="0.0057515609" />
    <ellipse
       id="path963"
       style="fill:#000000;stroke:#000000;stroke-width:0.328889"
       cx="44.042427"
       cy="10.746655"
       rx="0.0064179343"
       ry="0.0057515609" />
    <ellipse
       id="path965"
       style="fill:#000000;stroke:#000000;stroke-width:0.328889"
       cx="43.637123"
       cy="12.673571"
       rx="0.0064179343"
       ry="0.0057515609" />
    <ellipse
       id="path967"
       style="fill:#000000;stroke:#000000;stroke-width:0.328889"
       cx="45.969738"
       cy="10.919374"
       rx="0.0064179343"
       ry="0.0057515609" />
    <ellipse
       id="path969"
       style="fill:#000000;stroke:#000000;stroke-width:0.328889"
       cx="45.969738"
       cy="10.919374"
       rx="0.0064179343"
       ry="0.0057515609" />
    <ellipse
       id="path971"
       style="fill:#000000;stroke:#000000;stroke-width:0.328889"
       cx="45.969738"
       cy="10.919374"
       rx="0.0064179343"
       ry="0.0057515609" />
    <ellipse
       id="path973"
       style="fill:#000000;stroke:#000000;stroke-width:0.328889"
       cx="45.969738"
       cy="10.919374"
       rx="0.0064179343"
       ry="0.0057515609" />
    <path
       style="fill:#333333;stroke-width:0.328889"
       id="path1419"
       d="m 20.453233,31.494325 c 2.785523,0.02011 5.57071,0.04347 8.356404,0.03755 2.856648,-0.02454 5.714486,-0.05058 8.565413,-0.223887 1.415282,-0.09494 2.822953,-0.285375 4.201079,-0.59152 0.834579,-0.185401 1.062439,-0.266206 1.874984,-0.503354 1.78053,-0.545511 3.367344,-1.379805 4.962614,-2.254116 1.48412,-0.849375 2.892754,-1.809861 4.215567,-2.85164 0.286563,-0.22568 0.563748,-0.460752 0.84562,-0.691129 1.297928,-1.141353 2.646297,-2.294414 3.56933,-3.716358 0.182386,-0.280962 0.329116,-0.579335 0.493674,-0.869002 0.326009,-0.854113 0.538129,-1.271078 0.656775,-2.197198 0.117954,-0.92074 0.05304,-1.754466 -0.120857,-2.665161 -0.193701,-1.0144 -0.39502,-1.457914 -0.742763,-2.418136 C 56.790313,11.262032 56.107226,10.009976 55.18956,8.9010337 55.069806,8.7563197 54.939615,8.6187838 54.814641,8.4776577 54.198103,7.8281522 53.429449,7.3015956 52.557337,6.9558332 52.337858,6.8688127 52.109259,6.8015863 51.885222,6.7244635 50.646231,6.3712535 49.358087,6.1948097 48.082332,5.9863866 47.117042,5.8469809 46.148087,5.7325717 45.183832,5.5868315 44.814396,5.5393145 44.987412,5.5636732 44.664543,5.5151676 43.748716,5.3782225 43.532606,6.5389234 44.448438,6.6758686 v 0 c 0.342462,0.050988 0.170124,0.027183 0.51703,0.071334 0.958554,0.1448669 1.921605,0.2596021 2.881403,0.3968673 1.197776,0.1956248 2.406663,0.3610837 3.573478,0.6809353 0.182628,0.060838 0.368759,0.113815 0.547889,0.1825111 0.701771,0.2691103 1.322952,0.6863189 1.819579,1.2036004 0.108671,0.1215709 0.222036,0.2398787 0.325994,0.3647104 0.844116,1.0135839 1.469074,2.1615309 1.969036,3.3398229 0.321882,0.877566 0.501387,1.267705 0.687054,2.191557 0.152845,0.760547 0.227936,1.522354 0.137538,2.294222 -0.09251,0.789861 -0.275685,1.172689 -0.54199,1.899642 -0.139725,0.25114 -0.263268,0.51005 -0.41918,0.75342 -0.859236,1.341227 -2.141978,2.416556 -3.356548,3.49259 -0.269825,0.220879 -0.535105,0.446302 -0.809472,0.662638 -1.271457,1.002526 -2.625313,1.927407 -4.051681,2.745438 -1.497785,0.821158 -3.015171,1.626073 -4.684998,2.139332 -0.750327,0.220139 -0.981973,0.301453 -1.752227,0.473249 -1.313801,0.293024 -2.655754,0.476028 -4.00537,0.56622 -2.822245,0.172396 -5.651531,0.195927 -8.479449,0.221182 -2.784657,0.0059 -5.568803,-0.01756 -8.353289,-0.03756 -0.928492,0 -0.928492,1.176748 0,1.176748 z" />
    <ellipse
       id="path1421"
       style="fill:#333333;stroke:#000000;stroke-width:0.328889"
       cx="44.043159"
       cy="5.8087783"
       rx="0.0031719874"
       ry="0.0028426403" />
    <ellipse
       id="path1423"
       style="fill:#333333;stroke:#000000;stroke-width:0.328889"
       cx="44.043159"
       cy="5.8087783"
       rx="0.0031719874"
       ry="0.0028426403" />
    <path
       style="fill:#333333;stroke-width:0.328889"
       id="path1425"
       d="m 44.461972,6.7740916 c 0.216036,0.2288785 0.409417,0.4735913 0.604264,0.7169002 0.541754,0.6757611 1.608149,-0.010826 1.066396,-0.686606 v 0 C 45.927804,6.5491494 45.724671,6.2923114 45.498458,6.0516384 44.928418,5.3948288 43.891932,6.1172773 44.461972,6.7740916 Z" />
    <path
       style="fill:#333333;stroke-width:0.328889"
       id="path1429"
       d="m 44.478644,6.3627185 c 0.439795,-0.09827 0.87068,-0.2237196 1.301263,-0.3496539 C 46.66242,5.7544627 46.25433,4.635988 45.371816,4.8945889 v 0 c -0.389961,0.1145093 -0.780268,0.2280548 -1.178022,0.3194045 -0.906381,0.1805047 -0.621531,1.3292299 0.28485,1.1487251 z" />
    <path
       style="fill:#333333;stroke-width:0.328889"
       id="path1431"
       d="m 34.242157,37.997742 c 0,0.238598 -0.0021,0.349154 0.01156,0.618837 0.0071,0.142289 0.0811,1.21048 0.08698,1.305092 0.05047,0.812216 0.04878,0.867716 0.0857,1.713075 0.06648,1.989599 0.118441,3.979708 0.223073,5.968074 0.03815,0.746699 0.107187,1.491716 0.15253,2.238023 0.05053,0.830853 1.361673,0.766812 1.31114,-0.06404 v 0 c -0.04526,-0.743453 -0.113661,-1.485642 -0.152049,-2.229475 -0.104692,-1.985217 -0.155838,-3.972209 -0.222616,-5.958655 -0.03769,-0.861069 -0.03574,-0.911747 -0.08711,-1.738328 -0.0262,-0.421499 -0.06323,-0.842466 -0.085,-1.264168 -0.0132,-0.256006 -0.01116,-0.359333 -0.01116,-0.588435 0,-0.832086 -1.313086,-0.832086 -1.313086,0 z" />
    <path
       style="fill:#333333;stroke-width:0.328889"
       id="path1433"
       d="m 35.996385,50.144105 c 0.27911,-0.349927 0.590973,-0.677176 0.889779,-1.013555 0.578083,-0.651137 -0.449455,-1.383788 -1.027537,-0.732648 v 0 c -0.354911,0.39997 -0.737039,0.783684 -1.036703,1.219948 -0.415233,0.744239 0.759224,1.270497 1.174461,0.526255 z" />
    <path
       style="fill:#333333;stroke-width:0.328889"
       id="path1435"
       d="m 35.335957,49.133135 c -0.196223,-0.245069 -0.440269,-0.452896 -0.680527,-0.662091 -0.666926,-0.57892 -1.580495,0.266329 -0.913569,0.845246 v 0 c 0.179393,0.155151 0.364309,0.307144 0.514487,0.486658 0.528506,0.684138 1.608115,0.01432 1.079609,-0.669813 z" />
    <path
       style="fill:#333333;stroke-width:0.264583"
       id="path14753"
       d="m 8.9687923,21.470924 c -0.5906167,1.02853 -1.2608801,2.009428 -1.8674995,3.027972 -0.4617951,0.775377 -0.6414,1.148557 -1.0478487,1.933001 0,0 0.8979156,0.04253 0.8979156,0.04253 v 0 c 0.4083595,-0.807055 0.5554308,-1.128314 1.026999,-1.926531 0.6088896,-1.030658 1.2784249,-2.026261 1.940669,-3.022813 0,0 -0.9502354,-0.05416 -0.9502354,-0.05416 z" />
    <path
       style="fill:#333333;stroke-width:0.264583"
       id="path14759"
       d="m 8.6643013,21.975839 c 0.030351,1.01747 0.069767,2.034876 0.1525429,3.049545 0.0569,0.567318 0.1635162,1.128107 0.2282515,1.69432 0,0 0.9824313,-0.01172 0.9824313,-0.01172 v 0 C 9.9565858,26.142271 9.8282748,25.585058 9.7722842,25.017001 9.6768167,24.006651 9.6189624,22.991012 9.6448056,21.975845 c 0,0 -0.9805043,0 -0.9805043,0 z" />
    <path
       style="fill:#333333;stroke-width:0.264583"
       id="path14761"
       d="m 8.0798148,24.742321 c 0.227898,-0.02624 0.4565674,-0.04483 0.6851274,-0.0641 0,0 -0.9656101,-0.144439 -0.9656101,-0.144439 v 0 c -0.233531,0.02057 -0.4673782,0.03913 -0.69987,0.06982 0,0 0.9803527,0.138718 0.9803527,0.138719 z" />
    <path
       style="fill:#333333;stroke-width:0.264583"
       id="path14763"
       d="m 47.025448,51.348764 c -0.409524,1.810509 -0.914201,3.598119 -1.39124,5.391724 -0.100602,0.417126 -0.210762,0.830921 -0.339016,1.240266 0,0 0.966521,0.02808 0.966521,0.02808 v 0 c 0.117065,-0.411395 0.217924,-0.826397 0.305241,-1.24528 0.431972,-1.809544 0.903484,-3.609253 1.42674,-5.394693 0,0 -0.968246,-0.02008 -0.968246,-0.02008 z" />
    <path
       style="fill:#333333;stroke-width:0.264583"
       id="path14765"
       d="m 47.748401,51.953257 c 0.07501,-2.64e-4 0.66284,-0.0035 0.661416,-0.0024 -0.122285,0.100203 -0.469379,-0.09883 -0.470572,0.05926 -0.0013,0.162626 0.316788,0.07708 0.469112,0.134062 0.383632,0.14351 0.381711,0.18025 0.679161,0.424616 0.02844,0.08933 0.09344,0.174591 0.08533,0.267986 -0.0208,0.239244 -0.301517,0.49335 -0.446194,0.628399 -0.342085,0.319315 -0.731652,0.567118 -1.12673,0.813234 -0.02627,0.02535 -0.693767,0.368773 -0.675344,0.407582 0.08623,0.181639 0.221588,0.126609 0.392475,0.13371 0.601107,0.03664 1.230643,0.109548 1.753282,0.436412 0.08908,0.05571 0.166939,0.127619 0.25041,0.191431 0.06328,0.07201 0.137234,0.135898 0.189844,0.216038 0.354415,0.539877 -0.157205,0.956326 -0.549728,1.25109 -0.782663,0.411864 -1.67459,0.53979 -2.542317,0.647581 -0.417812,0.04004 -0.217086,0.02363 -0.602078,0.05057 0,0 0.96226,0.144899 0.96226,0.144899 v 0 c 0.378796,-0.03137 0.181269,-0.01273 0.592466,-0.05718 0.872752,-0.118544 1.773388,-0.253127 2.547326,-0.698571 0.103809,-0.08372 0.217051,-0.156927 0.311433,-0.251148 0.311679,-0.311145 0.498549,-0.747363 0.249235,-1.155655 -0.05291,-0.08665 -0.129296,-0.156567 -0.193947,-0.23485 -0.08514,-0.06946 -0.164095,-0.147293 -0.255426,-0.208391 -0.515594,-0.344918 -1.145501,-0.436311 -1.749806,-0.480716 -0.287523,-0.01151 -0.204052,-0.06966 -0.363705,0.0953 -0.0092,0.0095 0.01982,-0.01752 0.03088,-0.02469 0.198667,-0.1285 0.407932,-0.240464 0.607639,-0.367236 0.391806,-0.254823 0.786514,-0.510593 1.123246,-0.838507 0.189783,-0.184814 0.445138,-0.432141 0.464116,-0.728186 0.0072,-0.111887 -0.0639,-0.214937 -0.09585,-0.322408 -0.09878,-0.08663 -0.187044,-0.186981 -0.296351,-0.259882 -0.878002,-0.585563 -1.979269,-0.395912 -2.979637,-0.427329 0,0 0.978061,0.154909 0.978061,0.154909 z" />
  </g>
</svg>
